<?xml version="1.0" encoding="UTF-8"?>
<svg id="Calque_1" data-name="Calque 1" xmlns="http://www.w3.org/2000/svg" viewBox="0 0 697.08 131.99">
  <defs>
    <style>
      .cls-1 {
        fill: #fff;
      }

      .cls-1, .cls-2 {
        stroke-width: 0px;
      }

      .cls-2 {
        fill: #f45656;
      }
    </style>
  </defs>
  <path class="cls-1" d="m67.85,91.63c-.02-.29-.03-.59-.05-.88h-2.39c.78.27,1.58.58,2.45.96v-.08h0Z"/>
  <path class="cls-1" d="m675.59,90.13v.02l7.69-.04h0l-7.69.03h0Z"/>
  <path class="cls-1" d="m390.5,88.88c-.11,0-.22.01-.33.01,10.19.25,17.44,7.27,17.36,16.91-.08,9.55-7.53,16.6-17.65,16.8.3,0,.59.03.89.03,10.36-.15,17.64-7.22,17.61-17.09-.03-9.83-7.37-16.66-17.89-16.66h0Z"/>
  <path class="cls-1" d="m676.74,79.4c-.1.04-.2.08-.31.11.86,1.43,1.91,2.86,2.99,4.28-.9-1.47-1.79-2.93-2.69-4.4h.01Z"/>
  <path class="cls-1" d="m675.31,90.35v-.02c-.09,0-.17.01-.26.02h.26Z"/>
  <path class="cls-1" d="m675.35,120.01v-.12c-.47.14-.92.27-1.36.4.43-.09.88-.18,1.36-.28Z"/>
  <path class="cls-1" d="m72.98,89.13c-2.27,1.14-3.7,1.86-5.13,2.58,1.79,1.46,2.86-1.44,5.13-2.58Z"/>
  <path class="cls-1" d="m458.5,121.76c6.63-2.88,10.64-7.49,11.45-14.34,1.46-12.35-7.52-20.62-20.91-19.46-8.88.77-15.32,7.45-15.78,16.37-.44,8.49,5.3,15.96,13.66,17.77,1.9.41,3.81.75,5.81,1.14-.14,1.35-.19,2.33-.36,3.3-.17.97-.44,1.92-.59,2.51-1.82,1.11-3.3,2.03-4.79,2.94h16c-1.28-1.14-2.56-2.27-4.06-3.61-.14-2.07-.29-4.34-.44-6.62h0Zm-5.59-1.03c-3.2.47-5.19-.45-5.89-3.13-.64-2.47-.1-4.6,2.75-5.67,4.16,1.79,3.11,5.27,3.14,8.81h0Zm-2.57-10.44c-2.43.58-4.38,3.18-6.44,4.79-1.48-5.57-1.74-12.12.14-18.64,1.27-4.38,4.15-6.84,7.55-6.95,3.51-.11,6.39,2.11,7.83,6.54,2.22,6.82,2.08,13.59-1.27,21.38-1.61-4.46-3.54-8.15-7.81-7.13h0Z"/>
  <path class="cls-1" d="m26.97,121.84c2.38-.7,4.51-2.59,6.43-4.31.52-.47.14-2.48-.43-3.41-.26-.42-2.08-.16-3.02.21-.66.26-1.11,1.19-1.54,1.89-2.19,3.61-5.26,5.5-9.57,4.88-4.37-.64-6.5-3.76-7.81-7.53-1.95-5.65-2.03-11.49-.74-17.25,1.43-6.35,6.55-9.08,12.56-6.41,2.71,1.2,4.86,3.79,7.05,5.97,1.09,1.08,1.72,2.64,2.55,3.98l.91-.33c-.59-2.97-1.17-5.94-1.71-8.68-1.95-.62-3.37-1.06-4.78-1.52-13.36-4.38-21.29-.93-26.87,11.67v8c5.7,12.21,14.48,16.52,26.97,12.85h0Z"/>
  <path class="cls-2" d="m92.91,2.07c-1.57,2.34-1.54,4.73.59,6.67,1.94,1.76,4.26,1.83,6.29.15,2.19-1.81,2.63-4.11.98-6.58-.54-.81-1.18-1.54-1.78-2.31h-4c-.71.69-1.55,1.28-2.09,2.08h0Z"/>
  <path class="cls-1" d="m72.99,113.93c-.01-4.66,0-9.32,0-13.98v-10.83c-2.27,1.14-3.33,4.03-5.13,2.58,0,.08,0,.16,0,0-.86-.38-1.67-.69-2.45-.96h-12.98v-19.2c1.94-.42,3.53-.77,5.13-1.12-.05-.18-.11-.35-.16-.53h-17.41c0,.21,0,.42,0,.62,1.53.43,3.07.86,4.68,1.32.08,1.63.21,2.93.21,4.24,0,12.64-.09,25.29.07,37.93.04,3.5-.53,6.3-5.2,7.74h14.93c-.89-1.57-2.44-3.08-2.5-4.66-.28-6.48-.07-12.97-.13-19.46-.02-2.79,1.46-4.25,3.91-5.07,4.73-1.59,8.93.98,9.17,5.97.26,5.48-.01,10.98.16,16.47.1,3.17-.7,5.58-3.86,6.81h16.05c-2.98-1.69-4.48-4.32-4.49-7.87h0Z"/>
  <path class="cls-1" d="m52.43,90.75h12.98c-4.53-1.57-7.86-1.34-12.98,0Z"/>
  <path class="cls-1" d="m144.1,114.36c-.17-2.99.05-6.01-.15-8.99-.58-8.57-6.21-14.83-14.39-16.2-8.56-1.43-16.69,2.59-19.98,9.89-4.35,9.63.63,20.05,10.78,22.94,6.24,1.77,11.49.37,16.15-4.57,1.99,3.93,5.04,5.6,9.09,4.5,2.66-.72,4.48-2.44,4.56-5.95-1.13.88-2.04,1.58-3.32,2.57-.74.57-1.82.2-2.05-.71-.35-1.38-.64-2.43-.7-3.49h.01Zm-11.88,4.48c-5.47,4-11.75,1.74-13.94-4.67-2.02-5.92-1.86-11.98.43-17.9,1.57-4.05,4.12-5.67,7.92-5.55,3.97.12,6.89,2.14,7.92,6.29.87,3.5,1.03,7.18,1.5,10.78-.21,4.14.06,8.21-3.83,11.05Z"/>
  <path class="cls-1" d="m559.05,114.24c-.15-2.49.03-4.99-.07-7.49-.6-14.05-13.53-21.89-26.29-15.97-6.55,3.04-10.35,9.76-9.66,17.08.65,6.82,5.41,12.18,12.26,14.15,6.21,1.79,11.47.35,16.14-4.63,1.96,4.02,5.05,5.65,9.05,4.54,2.58-.72,4.69-2.29,4.42-5.75-.9.67-1.71,1.27-2.77,2.06-.95.71-2.33.19-2.58-.97s-.45-2.09-.5-3.03h0Zm-12.71,5.09c-5.27,3.2-11.02.93-13.06-4.89-2.09-5.96-1.93-12.07.28-18.06,1.49-4.03,4.12-5.77,7.83-5.69,4.13.09,6.68,2.09,8.15,6.45.26.77.44,1.58.52,2.39.28,2.71.5,5.42.74,8.13-.07,4.43.22,8.82-4.46,11.66h0Z"/>
  <path class="cls-1" d="m203.16,88.88c-10.53-.08-18.01,6.68-18.17,16.44-.17,10,7.44,17.35,17.91,17.31,10.31-.04,17.92-7.16,18-16.82.08-9.76-7.34-16.85-17.73-16.93h-.01Zm6.18,27.7c-2.89,5.91-10,5.88-12.88-.05-1.62-3.32-2.54-6.96-2.54-11.38s1.07-7.33,2.73-10.63c2.82-5.6,9.81-5.59,12.62.02,3.61,7.2,3.6,14.83.07,22.04Z"/>
  <path class="cls-1" d="m321.18,97.45c.03,5.82-.06,11.65.02,17.47.05,3.26-1.57,4.86-4.6,5.48-3.82.78-6.99-.57-8.25-4.59-1.07-3.42-1.42-7.15-1.61-10.76-.26-4.93-.06-9.88-.06-15.04h-13.03c2.21.96,3.61,1.58,5.39,2.35,0,4.9-.2,9.72.04,14.51.48,9.44,6,15.47,14.76,15.65,3.35.07,6.73-1.33,10.63-2.18.8.62,2.08,1.61,4.15,3.21v-30.92c1.79-1,2.95-1.65,4.8-2.68h-17.06c4.77,2.26,4.8,2.26,4.82,7.49h0Z"/>
  <path class="cls-1" d="m503.97,95.42c-.09,6.65-.04,13.31-.03,19.96,0,2.5-1.26,3.97-3.6,4.75-4.05,1.35-7.5.28-9.01-3.79-1.25-3.35-1.78-7.07-2.01-10.66-.33-5.08-.08-10.2-.08-15.53h-11.94c4.43.31,4.45,3.34,4.43,6.55-.02,3.99-.11,8,.29,11.96.88,8.75,7.38,14.58,15.77,13.96,3.05-.23,6.02-1.58,9.08-2.43,1.26.89,2.55,1.81,4.48,3.18.14-2.23.31-3.81.32-5.4.03-6.99.13-13.98-.05-20.96-.08-3.03.35-5.52,4.34-6.98h-16.18c2.61.97,4.24,2.38,4.2,5.39h-.01Z"/>
  <path class="cls-1" d="m654.97,118.79c-4.8,4.83-10.44,3.79-13.33-2.31-2.12-4.47-2.29-9.22-1.93-15.14h22.35c.29-5.39-2.5-8.14-6.05-10.22-8.34-4.89-19.3-1.72-23.67,6.72-4.53,8.74-1.25,19.13,7.5,23.43,6.99,3.43,13.86,2.1,20.98-.69.47-3.15.93-6.19,1.39-9.23-.4-.1-.8-.19-1.2-.29-2,2.59-3.75,5.42-6.04,7.73Zm-8.16-28.08c3.81.02,5.87,2.83,5.82,8.62h-12.03c-.31-5.18,2.19-8.64,6.21-8.62Z"/>
  <path class="cls-1" d="m247.64,103.44c-3.26-1.25-6.7-2.12-9.78-3.71-1.48-.76-3.27-2.81-3.23-4.23.08-2.7,2.59-3.82,5.13-3.43,1.71.26,3.37,1.2,4.93,2.06,1.35.74,2.52,1.81,4.41,3.21.9-2.94,1.55-5.04,2.17-7.07-6.14-2.84-12.72-2.15-17.87,1.59-6.71,4.86-6.28,11.46,1.12,15.23,3.55,1.81,7.29,3.24,10.94,4.86,2.14.95,3.23,2.8,2.41,4.84-.66,1.62-2.11,3.46-3.65,4.08-3.95,1.59-7.6,0-10.33-3.83-1.46-2.06-2.87-4.16-4.31-6.25-.43.18-.86.36-1.29.54.46,3.14.92,6.29,1.35,9.16,6.37,2.78,12.39,3.37,16.95,1.82,4.67-1.59,7.11-4.85,7.27-9.66.15-4.58-2.02-7.6-6.22-9.21h0Z"/>
  <path class="cls-1" d="m273,116.25c-4.38-4.66-5.84-14.52-2.98-20.2,1.97-3.93,5.13-4.97,9.12-2.91,1.4.72,2.73,1.58,4.7,2.74.73-2.53,1.24-4.32,1.73-6.03-8.86-3.73-19.3.48-23.08,8.85-4.01,8.87-.38,19.04,8.14,22.81,7.97,3.53,16.83,1.31,19.72-4.93-6.74,4.68-12.75,4.57-17.34-.33h-.01Z"/>
  <path class="cls-1" d="m160.96,96.98c-2.74,5.31-3.73,10.97-3.98,16.84-.09,2.1-.29,4.2-.43,6.31-1.83.52-3.19.91-4.55,1.3.03.11.05.22.08.34h15.34c-.95-1.5-2.52-2.85-2.57-4.26-.25-6.48-.33-12.99.04-19.47.3-5.27,3.9-6.73,8.33-3.73,1.47.99,2.83,2.15,5.09,3.88.87-3.07,1.54-5.41,2.14-7.55-6.47-3.71-16.09-.24-19.49,6.35h0Z"/>
  <path class="cls-1" d="m350.11,94.76c-3.36,4.35-4.65,9.47-5.14,14.83-.32,3.44-.5,6.9-.74,10.44-1.95.68-3.15,1.09-5.07,1.75h15.87c-1.02-1.4-2.67-2.61-2.71-3.87-.21-6.79-.39-13.62.16-20.38.4-4.88,4.13-6.09,8.31-3.26,1.46.99,2.79,2.15,4.87,3.77,1.05-2.83,1.86-5.01,2.63-7.09-6.28-3.51-13.87-1.79-18.18,3.8h0Z"/>
  <path class="cls-1" d="m96.46,115.15c.03-6.31-.2-12.63.13-18.92.11-2.15,1.58-4.23,2.34-6.13h-13.71c1.14,1.63,3.37,3.36,3.46,5.21.4,7.93.17,15.89.17,23.84-1.61.86-2.92,1.57-5.06,2.71h16.92c-3.8-.98-4.26-3.65-4.25-6.71Z"/>
  <path class="cls-1" d="m575.54,97.94c-2.02,4.79-2.54,10.22-3.55,15.4-.43,2.22-.38,4.52-.56,6.81-1.82.5-3.18.88-4.54,1.25.02.19.04.38.07.57h15.45c-1.12-1.73-2.74-3.09-2.78-4.5-.2-6.64-.29-13.32.22-19.94.37-4.78,3.71-6.06,7.84-3.5,1.64,1.02,3.14,2.27,5.41,3.93.93-2.8,1.66-5.01,2.48-7.49-8.74-3.2-16.77-.33-20.04,7.45v.02Z"/>
  <path class="cls-2" d="m86.84,70.97c.16,2.61,2.32,4.72,4.86,4.77,2.83.05,5.27-2.56,5.2-5.58-.06-2.83-2.42-5.15-5.11-5.03-2.79.12-5.13,2.88-4.95,5.84Z"/>
  <path class="cls-2" d="m113.89,38.92c.03-2.8-2.14-4.98-4.99-4.9-2.91.08-4.56,1.67-4.82,4.53-.24,2.69,2.04,5.16,4.7,5.26,2.66.11,5.08-2.21,5.11-4.9h0Z"/>
  <path class="cls-2" d="m88.93,23.18c2.9,0,5.09-2.24,4.96-5.06-.12-2.55-2.32-4.63-4.93-4.66-2.8-.03-5.01,2.29-4.9,5.14.1,2.71,2.1,4.59,4.87,4.59h0Z"/>
  <path class="cls-1" d="m407.53,105.81c.08-9.64-7.17-16.66-17.36-16.91-10.32.15-17.47,6.93-17.5,16.7-.03,9.79,7.1,16.76,17.22,17.01,10.12-.2,17.57-7.25,17.65-16.8h0Zm-11.56,10.78c-2.89,5.91-10,5.88-12.88-.05-1.62-3.32-2.54-6.96-2.54-11.38s1.07-7.33,2.73-10.63c2.82-5.6,9.81-5.59,12.62.02,3.61,7.2,3.6,14.83.07,22.04Z"/>
  <path class="cls-1" d="m372.67,105.6c.03-9.77,7.18-16.55,17.5-16.7-.13,0-.25-.02-.37-.02-10.53-.08-18.01,6.68-18.17,16.44-.17,10,7.44,17.35,17.91,17.31.12,0,.23-.01.35-.02-10.11-.25-17.25-7.22-17.22-17.01Z"/>
  <path class="cls-1" d="m615.34,90.1l-8.65.05v.2h-7.77v3h7.77c.01,8.44.04,19.2.04,26.66-1.94.4-3.5.72-5.06,1.05.02.27.03.55.05.82h17.72c.03-.16.07-.33.1-.5-1.45-.56-2.9-1.12-4.15-1.6,0-7.61-.04-18.3-.05-26.43h13.12v-3h-13.12v-.25h0Z"/>
  <path class="cls-1" d="m606.69,79.83v10.3l8.65-.03c-2.06-3.44-5.4-7.02-7.56-10.62-.36.12-.72.23-1.09.35Z"/>
  <path class="cls-1" d="m683.28,90.09l-7.69.03v-10.29c.28-.1.56-.21.84-.31.86,1.43,1.91,2.86,2.99,4.28h.01c1.28,2.09,2.57,4.19,3.85,6.29Z"/>
  <path class="cls-1" d="m697.08,90.35v2.99h-1.08v-.36c-.94.12-1.88.24-2.83.36h-9.21c0,8.13.05,18.82.05,26.43,1.25.48,2.7,1.04,4.15,1.6-.03.17-.07.34-.1.5h-17.5c-.04-.18-.09-.35-.14-.53,1.15-.34,2.29-.68,3.58-1.06.44-.09.89-.18,1.36-.28v-.12c.1-.03.19-.06.29-.09v-26.47l-8.1.02v-2.36c2.38-.21,4.83-.41,7.51-.64h.26v-.02c.09,0,.18-.02.27-.02v-.16l7.69-.04c.06.1.12.2.18.3,4.27.2,8.41.4,12.54.59v-.64h1.08Z"/>
  <path class="cls-1" d="m693.17,93.35h2.83v-.36c-.94.12-1.88.24-2.83.36Z"/>
  <path class="cls-1" d="m683.96,90.1h-.69c.06.1.12.21.18.31,4.28.2,8.41.39,12.54.59v-.64h-12.04v-.25h.01Z"/>
  <path class="cls-1" d="m675.31,90.32c.09,0,.18-.02.27-.02v-.16h-.27v.18Z"/>
  <path class="cls-1" d="m667.54,90.98c2.39-.2,4.83-.41,7.51-.64h-7.51v.64Z"/>
  <path class="cls-1" d="m683.96,90.1c-1.23-2.06-2.92-4.16-4.54-6.3,1.28,2.1,2.57,4.2,3.85,6.3h.69Z"/>
  <path class="cls-1" d="m676.43,79.52s-.02-.03-.03-.04c-.36.12-.72.23-1.09.35v10.3h.27v-10.3c.28-.1.56-.21.84-.31h.01Z"/>
</svg>